<mxfile host="app.diagrams.net" agent="Mozilla/5.0 (Macintosh; Intel Mac OS X 10_15_7) AppleWebKit/537.36 (KHTML, like Gecko) Chrome/131.0.0.0 Safari/537.36 Edg/131.0.0.0" version="26.0.6">
  <diagram name="第 1 页" id="iVk1J7P7cYxJScOk8Zi-">
    <mxGraphModel dx="849" dy="-3005" grid="1" gridSize="10" guides="1" tooltips="1" connect="1" arrows="1" fold="1" page="1" pageScale="1" pageWidth="827" pageHeight="1169" math="0" shadow="0">
      <root>
        <mxCell id="0" />
        <mxCell id="1" parent="0" />
        <mxCell id="D1pdrLAlCAPpk1rX8jFY-2" value="" style="rounded=0;whiteSpace=wrap;html=1;strokeWidth=2;container=0;shadow=1;" vertex="1" parent="1">
          <mxGeometry x="100" y="4220" width="350" height="150" as="geometry" />
        </mxCell>
        <mxCell id="D1pdrLAlCAPpk1rX8jFY-4" value="" style="rounded=0;whiteSpace=wrap;html=1;strokeWidth=2;container=0;shadow=1;" vertex="1" parent="1">
          <mxGeometry x="100" y="4380" width="350" height="110" as="geometry" />
        </mxCell>
        <mxCell id="D1pdrLAlCAPpk1rX8jFY-7" value="" style="rounded=1;whiteSpace=wrap;html=1;" vertex="1" parent="1">
          <mxGeometry x="160" y="4240" width="150" height="70" as="geometry" />
        </mxCell>
        <mxCell id="D1pdrLAlCAPpk1rX8jFY-9" value="&lt;font face=&quot;Times New Roman&quot;&gt;Async Runtime&lt;/font&gt;" style="text;html=1;align=center;verticalAlign=middle;resizable=0;points=[];autosize=1;strokeColor=none;fillColor=none;" vertex="1" parent="1">
          <mxGeometry x="159.99999999999997" y="4240" width="100" height="30" as="geometry" />
        </mxCell>
        <mxCell id="D1pdrLAlCAPpk1rX8jFY-11" value="&lt;font face=&quot;Times New Roman&quot;&gt;syscall waker&lt;/font&gt;" style="rounded=1;whiteSpace=wrap;html=1;" vertex="1" parent="1">
          <mxGeometry x="129.45" y="4400" width="94.21" height="35" as="geometry" />
        </mxCell>
        <mxCell id="D1pdrLAlCAPpk1rX8jFY-12" value="" style="endArrow=classic;html=1;rounded=0;exitX=0.377;exitY=1.005;exitDx=0;exitDy=0;exitPerimeter=0;entryX=0.912;entryY=0.031;entryDx=0;entryDy=0;entryPerimeter=0;" edge="1" parent="1" source="D1pdrLAlCAPpk1rX8jFY-7" target="D1pdrLAlCAPpk1rX8jFY-11">
          <mxGeometry width="50" height="50" relative="1" as="geometry">
            <mxPoint x="390" y="4440" as="sourcePoint" />
            <mxPoint x="207" y="4420" as="targetPoint" />
          </mxGeometry>
        </mxCell>
        <mxCell id="D1pdrLAlCAPpk1rX8jFY-13" value="&lt;font face=&quot;Times New Roman&quot;&gt;syscall&lt;/font&gt;" style="edgeLabel;html=1;align=center;verticalAlign=middle;resizable=0;points=[];" vertex="1" connectable="0" parent="D1pdrLAlCAPpk1rX8jFY-12">
          <mxGeometry x="-0.468" y="-1" relative="1" as="geometry">
            <mxPoint as="offset" />
          </mxGeometry>
        </mxCell>
        <mxCell id="D1pdrLAlCAPpk1rX8jFY-14" value="&lt;font face=&quot;Times New Roman&quot;&gt;async fn req_&lt;/font&gt;&lt;span style=&quot;font-family: &amp;quot;Times New Roman&amp;quot;;&quot;&gt;dispatcher&lt;/span&gt;&lt;font face=&quot;Times New Roman&quot;&gt;(buf)&lt;/font&gt;" style="rounded=1;whiteSpace=wrap;html=1;" vertex="1" parent="1">
          <mxGeometry x="280" y="4437.5" width="120" height="32.5" as="geometry" />
        </mxCell>
        <mxCell id="D1pdrLAlCAPpk1rX8jFY-15" value="&lt;font face=&quot;Times New Roman&quot;&gt;syscall lib&lt;/font&gt;" style="shape=note;whiteSpace=wrap;html=1;backgroundOutline=1;darkOpacity=0.05;size=14;" vertex="1" parent="1">
          <mxGeometry x="169.45" y="4270" width="80" height="40" as="geometry" />
        </mxCell>
        <mxCell id="D1pdrLAlCAPpk1rX8jFY-16" value="" style="rounded=0;whiteSpace=wrap;html=1;" vertex="1" parent="1">
          <mxGeometry x="249.45" y="4270" width="50" height="10" as="geometry" />
        </mxCell>
        <mxCell id="D1pdrLAlCAPpk1rX8jFY-17" value="" style="rounded=0;whiteSpace=wrap;html=1;" vertex="1" parent="1">
          <mxGeometry x="249.45" y="4280" width="50" height="10" as="geometry" />
        </mxCell>
        <mxCell id="D1pdrLAlCAPpk1rX8jFY-18" value="" style="rounded=0;whiteSpace=wrap;html=1;" vertex="1" parent="1">
          <mxGeometry x="249.45" y="4290" width="50" height="10" as="geometry" />
        </mxCell>
        <mxCell id="D1pdrLAlCAPpk1rX8jFY-19" value="" style="rounded=0;whiteSpace=wrap;html=1;" vertex="1" parent="1">
          <mxGeometry x="249.45" y="4300" width="50" height="10" as="geometry" />
        </mxCell>
        <mxCell id="D1pdrLAlCAPpk1rX8jFY-20" value="&lt;font style=&quot;font-size: 10px;&quot; face=&quot;Times New Roman&quot;&gt;Task Queue&lt;/font&gt;" style="text;html=1;align=center;verticalAlign=middle;resizable=0;points=[];autosize=1;strokeColor=none;fillColor=none;" vertex="1" parent="1">
          <mxGeometry x="240" y="4245" width="70" height="30" as="geometry" />
        </mxCell>
        <mxCell id="D1pdrLAlCAPpk1rX8jFY-35" value="" style="endArrow=classic;html=1;rounded=0;exitX=1;exitY=0.5;exitDx=0;exitDy=0;entryX=0;entryY=0.5;entryDx=0;entryDy=0;" edge="1" parent="1" source="D1pdrLAlCAPpk1rX8jFY-11" target="D1pdrLAlCAPpk1rX8jFY-14">
          <mxGeometry width="50" height="50" relative="1" as="geometry">
            <mxPoint x="390" y="4402.5" as="sourcePoint" />
            <mxPoint x="440" y="4352.5" as="targetPoint" />
            <Array as="points">
              <mxPoint x="240" y="4418" />
              <mxPoint x="240" y="4453" />
              <mxPoint x="260" y="4452.5" />
            </Array>
          </mxGeometry>
        </mxCell>
        <mxCell id="D1pdrLAlCAPpk1rX8jFY-38" value="&lt;font face=&quot;Times New Roman&quot;&gt;shared memory&lt;/font&gt;" style="rounded=0;whiteSpace=wrap;html=1;" vertex="1" parent="1">
          <mxGeometry x="255.10000000000002" y="4340" width="144.9" height="70" as="geometry" />
        </mxCell>
        <mxCell id="D1pdrLAlCAPpk1rX8jFY-41" value="" style="edgeStyle=orthogonalEdgeStyle;rounded=0;orthogonalLoop=1;jettySize=auto;html=1;" edge="1" parent="1" source="D1pdrLAlCAPpk1rX8jFY-43" target="D1pdrLAlCAPpk1rX8jFY-14">
          <mxGeometry relative="1" as="geometry">
            <Array as="points">
              <mxPoint x="240" y="4460" />
              <mxPoint x="240" y="4453" />
            </Array>
          </mxGeometry>
        </mxCell>
        <mxCell id="D1pdrLAlCAPpk1rX8jFY-42" value="&lt;font face=&quot;Times New Roman&quot;&gt;wake&lt;/font&gt;" style="edgeLabel;html=1;align=center;verticalAlign=middle;resizable=0;points=[];" vertex="1" connectable="0" parent="D1pdrLAlCAPpk1rX8jFY-41">
          <mxGeometry x="0.2466" y="1" relative="1" as="geometry">
            <mxPoint as="offset" />
          </mxGeometry>
        </mxCell>
        <mxCell id="D1pdrLAlCAPpk1rX8jFY-43" value="&lt;font face=&quot;Times New Roman&quot;&gt;kernel scheduler&lt;/font&gt;" style="rounded=1;whiteSpace=wrap;html=1;" vertex="1" parent="1">
          <mxGeometry x="129.45" y="4442.5" width="94.21" height="35" as="geometry" />
        </mxCell>
        <mxCell id="D1pdrLAlCAPpk1rX8jFY-45" value="&lt;font style=&quot;font-size: 14px;&quot; face=&quot;Times New Roman&quot;&gt;User Thread&lt;/font&gt;" style="text;html=1;align=center;verticalAlign=middle;resizable=0;points=[];autosize=1;strokeColor=none;fillColor=none;" vertex="1" parent="1">
          <mxGeometry x="350" y="4230" width="90" height="30" as="geometry" />
        </mxCell>
        <mxCell id="D1pdrLAlCAPpk1rX8jFY-46" value="&lt;font style=&quot;font-size: 14px;&quot; face=&quot;Times New Roman&quot;&gt;Kernel&lt;/font&gt;" style="text;html=1;align=center;verticalAlign=middle;resizable=0;points=[];autosize=1;strokeColor=none;fillColor=none;" vertex="1" parent="1">
          <mxGeometry x="384" y="4412.5" width="60" height="30" as="geometry" />
        </mxCell>
      </root>
    </mxGraphModel>
  </diagram>
</mxfile>
